<?xml version="1.0" standalone="no"?>
<!DOCTYPE svg PUBLIC "-//W3C//DTD SVG 20010904//EN"
 "http://www.w3.org/TR/2001/REC-SVG-20010904/DTD/svg10.dtd">
<svg version="1.0" xmlns="http://www.w3.org/2000/svg"
 width="236.000000pt" height="78.000000pt" viewBox="0 0 236.000000 78.000000"
 preserveAspectRatio="xMidYMid meet">

<g transform="translate(0.000000,78.000000) scale(0.100000,-0.100000)"
fill="#000000" stroke="none">
<path d="M0 610 l0 -170 110 0 c60 0 120 5 133 11 26 12 47 47 47 77 0 26 -29
62 -58 73 l-26 10 29 15 c37 19 45 31 45 71 0 50 -48 83 -121 83 -23 0 -25
-25 -4 -34 22 -8 21 -99 -2 -117 -9 -8 -19 -13 -22 -12 -3 2 -8 38 -11 80 l-5
78 -57 3 -58 3 0 -171z"/>
<path d="M445 770 c-3 -5 -1 -27 6 -49 10 -33 8 -49 -10 -110 -12 -39 -26 -71
-30 -71 -5 0 0 29 10 65 12 40 17 71 12 80 -6 11 -21 -25 -50 -115 -35 -113
-38 -130 -23 -130 11 0 20 13 26 38 9 37 10 37 59 37 49 0 50 0 59 -37 l10
-38 58 0 c52 0 59 2 54 18 -3 9 -22 86 -42 170 l-36 152 -48 0 c-27 0 -52 -4
-55 -10z"/>
<path d="M690 610 l0 -170 55 0 55 0 0 69 c0 71 6 86 33 75 9 -3 16 -24 19
-59 6 -74 26 -95 92 -95 30 0 46 4 38 9 -7 4 -16 37 -20 72 -6 59 -9 65 -40
80 l-32 17 29 12 c39 16 58 60 42 98 -14 34 -38 50 -91 58 -41 7 -54 -8 -29
-33 5 -5 9 -37 7 -69 -3 -51 -6 -59 -23 -59 -18 0 -20 8 -23 83 l-3 82 -54 0
-55 0 0 -170z"/>
<path d="M20 380 c-11 -7 -16 -32 -18 -92 -5 -115 2 -122 110 -126 46 -2 96 1
111 7 24 9 28 16 25 43 -2 25 -8 34 -25 36 -19 3 -23 -1 -23 -23 0 -26 0 -26
-71 -23 l-71 3 0 70 0 70 71 3 c66 3 71 1 71 -18 0 -15 6 -20 25 -20 21 0 25
5 25 30 0 19 -7 33 -19 40 -25 13 -191 13 -211 0z"/>
<path d="M1290 277 l0 -113 25 -2 c23 -2 25 1 25 43 0 42 2 45 26 45 18 0 43
-15 75 -45 35 -33 56 -45 79 -45 16 0 30 3 30 8 0 4 -22 23 -47 42 l-47 35 30
3 c37 4 54 26 54 73 0 61 -16 69 -141 69 l-109 0 0 -113z m198 41 l3 -28 -75
0 -76 0 0 30 0 31 73 -3 c70 -3 72 -4 75 -30z"/>
<path d="M360 340 c-11 -7 -15 -28 -15 -84 0 -41 4 -78 8 -83 5 -4 56 -8 113
-8 122 0 124 1 124 92 0 86 -9 93 -123 93 -51 0 -99 -5 -107 -10z m180 -80 l0
-60 -75 0 -75 0 0 60 0 60 75 0 75 0 0 -60z"/>
<path d="M670 256 c0 -84 2 -94 18 -92 13 2 18 15 20 59 2 32 5 57 8 57 2 0
39 -27 81 -60 41 -33 82 -60 89 -60 11 0 14 21 14 95 0 88 -1 95 -20 95 -18 0
-20 -7 -20 -60 0 -33 -2 -60 -5 -60 -2 0 -40 27 -82 60 -43 33 -84 60 -90 60
-10 0 -13 -25 -13 -94z"/>
<path d="M998 339 c-15 -8 -18 -24 -18 -85 0 -72 1 -75 28 -85 39 -15 171 -7
182 11 17 27 11 47 -15 52 -19 4 -25 1 -25 -13 0 -17 -8 -19 -62 -19 l-63 0 1
57 2 58 61 3 c56 3 61 1 61 -18 0 -21 8 -24 34 -14 20 8 20 28 0 48 -18 19
-157 22 -186 5z"/>
<path d="M1624 337 c-3 -8 -4 -49 -2 -93 l3 -79 100 0 c82 0 100 3 100 15 0
12 -17 16 -77 18 -69 3 -78 5 -78 22 0 15 8 19 42 22 59 4 63 28 4 28 -42 0
-46 2 -46 25 0 24 2 25 75 25 60 0 75 3 75 15 0 21 -188 22 -196 2z"/>
<path d="M1870 335 c0 -11 12 -15 50 -15 l50 0 0 -140 c0 -127 2 -142 20 -160
11 -11 29 -20 40 -20 23 0 27 25 6 37 -12 6 -15 37 -17 143 l-1 135 46 3 c32
2 46 7 46 18 0 11 -22 14 -120 14 -100 0 -120 -2 -120 -15z"/>
<path d="M2154 337 c-3 -8 -4 -49 -2 -93 l3 -79 100 0 c87 0 100 2 103 18 3
15 -6 17 -77 17 -74 0 -81 2 -81 20 0 17 7 20 45 20 33 0 45 4 45 15 0 11 -12
15 -45 15 -41 0 -45 2 -45 25 0 25 1 25 81 25 60 0 80 3 77 13 -7 18 -196 23
-204 4z"/>
</g>
</svg>
