<?xml version="1.0" standalone="no"?>
<!DOCTYPE svg PUBLIC "-//W3C//DTD SVG 20010904//EN"
 "http://www.w3.org/TR/2001/REC-SVG-20010904/DTD/svg10.dtd">
<svg version="1.0" xmlns="http://www.w3.org/2000/svg"
 width="500.000000pt" height="500.000000pt" viewBox="0 0 500.000000 500.000000"
 preserveAspectRatio="xMidYMid meet">

<g transform="translate(0.000000,500.000000) scale(0.100000,-0.100000)"
fill="#000000" stroke="none">
<path d="M3851 3879 c-1 -8 -12 -26 -27 -40 -18 -17 -23 -19 -18 -6 13 34 -27
17 -80 -33 -55 -52 -73 -62 -62 -34 9 24 -4 63 -26 75 -18 10 -29 3 -81 -48
-36 -35 -57 -50 -54 -38 3 11 12 39 19 63 11 37 10 44 -2 52 -29 18 -45 9 -75
-42 -41 -71 -241 -276 -336 -344 -43 -31 -76 -61 -72 -67 3 -6 1 -7 -5 -3 -7
4 -24 -5 -39 -21 -55 -56 -73 -63 -140 -57 -41 5 -63 3 -63 -4 0 -5 -19 -10
-43 -10 -33 1 -66 -11 -144 -51 -106 -55 -199 -118 -188 -129 4 -4 13 2 21 12
7 11 17 17 20 13 4 -3 20 3 35 14 31 22 40 12 12 -13 -10 -9 -44 -30 -77 -47
-76 -40 -196 -137 -196 -159 0 -9 -28 -37 -62 -62 -68 -49 -178 -148 -178
-160 0 -4 30 21 66 56 36 35 71 64 77 64 7 0 -20 -32 -60 -71 -40 -39 -77 -68
-83 -64 -5 3 -18 -6 -27 -22 -22 -38 -210 -201 -395 -343 -15 -11 -41 -20 -62
-20 -74 0 -380 -85 -497 -138 -35 -16 -81 -35 -103 -42 -24 -8 -34 -15 -26
-20 8 -5 1 -11 -21 -19 -39 -13 -42 -14 -35 -2 3 5 -36 -11 -87 -36 -126 -62
-160 -73 -229 -73 -44 0 -60 -4 -65 -16 -8 -23 20 -46 60 -49 19 -2 61 -9 94
-15 45 -10 54 -14 38 -21 -18 -7 -17 -8 7 -8 15 -1 29 -5 32 -10 3 -4 60 -12
126 -16 66 -4 120 -11 120 -16 0 -5 -4 -9 -10 -9 -5 0 -10 -5 -10 -11 0 -5 4
-8 9 -5 5 4 17 3 28 -1 15 -6 13 -9 -12 -14 -16 -4 11 -4 60 -2 116 7 105 -5
-16 -18 -103 -11 -143 -29 -65 -29 80 0 190 20 204 38 10 14 12 12 12 -10 0
-27 -19 -50 -21 -26 -1 7 -4 2 -8 -12 -7 -24 -11 -25 -82 -25 -69 -1 -74 -2
-77 -24 -2 -14 5 -33 19 -47 12 -13 21 -26 18 -28 -2 -2 -17 -11 -34 -20 -16
-10 -21 -14 -10 -11 11 4 27 9 35 12 19 5 73 -35 64 -48 -3 -5 -15 -3 -27 6
-27 19 -48 19 -41 1 3 -8 12 -12 21 -9 11 4 14 1 11 -13 -1 -10 -14 -21 -28
-25 -23 -6 -23 -7 10 -12 19 -3 -10 -4 -65 -1 -120 5 -175 13 -175 26 0 6 18
7 43 4 l42 -6 -40 14 c-80 26 -71 -30 16 -93 58 -43 77 -70 25 -35 -15 9 -29
14 -32 11 -9 -9 78 -55 119 -62 29 -6 35 -10 27 -20 -8 -9 -8 -15 0 -20 5 -3
10 -14 10 -23 0 -27 60 -55 103 -48 21 3 54 8 75 11 l37 6 -25 -20 c-14 -12
-31 -21 -37 -21 -9 0 -13 -15 -13 -43 0 -23 -7 -53 -16 -65 -14 -20 -14 -22 1
-22 8 0 23 4 33 10 9 5 52 19 95 31 42 12 77 25 77 29 0 4 19 12 42 19 24 8
37 16 30 20 -8 5 1 14 24 25 44 20 58 14 17 -8 -15 -8 -24 -15 -19 -16 15 0
106 61 106 72 0 5 4 7 8 4 9 -5 133 29 166 46 15 8 24 3 47 -25 15 -19 42 -40
59 -47 24 -10 28 -15 19 -26 -9 -11 -8 -15 5 -20 8 -3 21 -4 28 -1 7 2 26 -2
42 -11 33 -16 236 -28 236 -13 0 5 8 7 18 4 10 -2 34 0 53 5 30 9 31 10 9 12
-17 1 -9 6 25 14 28 7 54 9 60 4 12 -11 28 -10 21 1 -3 5 1 12 10 15 24 9 31
7 14 -4 -30 -19 10 -9 126 31 66 23 127 43 136 44 10 0 21 4 24 8 4 4 13 7 21
7 11 0 11 -6 -2 -32 -15 -31 -14 -32 1 -10 9 12 20 22 25 22 5 0 28 13 51 30
24 16 61 32 83 35 40 6 40 6 15 -10 -17 -11 -19 -14 -5 -9 49 17 145 42 145
38 0 -3 -10 -15 -23 -27 -17 -16 -18 -18 -2 -7 11 8 28 23 38 32 19 20 37 23
37 9 0 -5 -12 -24 -26 -43 -14 -18 -6 -12 18 13 42 45 46 47 152 69 60 12 153
26 207 30 66 5 105 13 121 25 l23 17 -25 -7 c-17 -5 -22 -4 -15 3 6 6 24 14
40 17 24 5 27 4 15 -5 -13 -11 -13 -11 0 -7 58 19 201 83 221 99 22 18 21 18
-18 -1 -55 -27 -125 -43 -120 -28 2 7 10 12 18 13 8 0 30 10 49 22 19 12 60
34 90 48 30 15 63 34 72 43 9 9 32 27 52 41 19 14 36 33 36 43 0 11 8 21 19
24 12 3 19 14 19 29 0 13 -5 21 -10 18 -6 -4 -8 2 -4 14 5 14 1 21 -11 25 -10
3 -65 24 -123 46 -90 35 -100 40 -70 42 29 1 26 3 -20 11 -30 5 -63 10 -72 11
-9 1 -15 4 -12 8 2 4 -19 13 -46 20 -40 10 -49 16 -44 28 4 9 10 48 13 86 3
39 11 69 16 69 6 -1 28 -5 50 -8 29 -5 36 -4 25 3 -26 18 50 12 110 -9 50 -18
52 -19 15 -14 -22 3 -53 8 -70 11 -16 3 -28 4 -25 1 3 -3 75 -20 160 -38 85
-17 190 -45 233 -62 43 -16 81 -28 83 -25 3 3 -9 9 -25 15 -17 6 -31 15 -31
20 0 21 -90 75 -131 78 -24 3 -50 11 -59 19 -9 8 -21 15 -26 15 -6 0 -19 7
-30 16 -18 15 -18 15 5 8 16 -4 21 -3 17 5 -11 17 56 14 80 -4 18 -14 18 -14
-2 -9 -12 3 -25 1 -28 -5 -4 -6 0 -11 9 -11 9 0 26 -6 38 -14 15 -10 29 -11
45 -5 25 10 29 27 7 35 -8 4 -15 10 -15 14 0 9 28 7 160 -15 59 -10 107 -12
155 -6 l70 8 -63 8 c-35 4 -59 11 -53 15 12 7 -162 23 -389 37 -117 7 -121 8
-60 14 63 5 64 6 15 8 -46 1 -49 3 -31 16 11 8 43 15 70 16 46 1 43 2 -34 15
-47 7 -105 14 -130 15 l-45 2 40 6 c22 4 49 12 60 19 18 10 17 11 -10 6 -168
-29 -191 -31 -202 -22 -7 6 -13 15 -13 21 0 5 -7 15 -17 22 -14 11 -13 13 11
17 21 4 26 2 21 -10 -4 -12 1 -13 26 -8 17 3 50 6 73 7 33 1 36 2 16 8 -19 5
7 14 103 35 71 15 131 25 135 22 3 -3 -1 -6 -8 -6 -7 0 -11 -2 -9 -5 3 -2 43
9 90 25 99 34 81 38 -50 10 -99 -21 -162 -26 -106 -9 53 16 216 40 235 34 10
-3 39 0 65 6 34 9 52 9 71 0 21 -9 33 -7 72 14 51 26 51 34 -1 10 -58 -28 0
13 65 46 67 34 65 33 65 14 0 -8 -4 -12 -8 -9 -10 6 -75 -34 -70 -43 4 -10
-96 -60 -123 -61 -11 -1 -61 -13 -111 -27 -49 -15 -112 -32 -140 -40 -27 -7
-42 -14 -32 -14 37 -2 14 -21 -25 -21 -32 0 -39 3 -28 10 11 7 5 10 -23 10
-21 0 -36 -4 -33 -9 4 -5 0 -12 -6 -14 -7 -3 14 -6 47 -8 l60 -2 -50 -6 c-39
-5 -45 -7 -26 -13 13 -4 20 -11 16 -17 -8 -15 -4 -14 33 4 45 23 126 33 327
42 99 4 160 9 135 11 -24 2 -47 7 -50 11 -5 7 -173 -1 -270 -14 -30 -4 -52 -5
-49 -1 14 15 177 66 213 66 40 0 41 -13 1 -24 -11 -3 11 -3 49 0 38 3 77 8 85
11 11 3 10 -1 -4 -12 -11 -10 -15 -16 -10 -14 102 38 109 55 21 53 -31 -1 -56
2 -56 7 0 5 -7 5 -17 2 -11 -4 -14 -3 -9 6 4 6 13 10 19 9 7 -2 44 14 84 35
40 20 79 37 87 37 15 0 42 37 33 46 -8 8 -37 -8 -37 -21 0 -7 -7 -16 -16 -19
-24 -9 -31 -7 -11 5 9 6 15 14 12 19 -3 4 11 19 32 31 52 33 27 34 -43 3 -37
-17 -84 -28 -127 -32 -50 -3 -67 -8 -63 -18 7 -18 -72 -41 -163 -48 -41 -3
-122 -17 -180 -30 -58 -14 -163 -39 -232 -56 -69 -16 -130 -30 -136 -30 -6 0
-26 25 -45 55 -27 44 -52 67 -132 120 -54 36 -101 65 -104 65 -4 0 8 -10 26
-21 48 -31 39 -39 -25 -20 -60 18 -70 31 -31 43 16 4 17 6 6 7 -14 1 -16 7
-12 34 4 17 14 38 22 45 10 7 11 12 4 12 -15 0 -15 11 -1 47 7 19 12 24 18 14
9 -14 22 34 20 73 -1 19 -2 18 -9 -4 -7 -22 -8 -21 -9 13 -1 29 5 44 27 63 15
14 20 22 12 18 -13 -7 -13 -5 -1 9 16 20 36 23 25 5 -4 -8 -3 -10 2 -5 5 5 9
14 9 20 0 5 6 12 14 15 9 3 11 0 6 -8 -4 -7 26 10 67 38 42 28 78 49 81 45 3
-3 57 26 119 64 62 38 165 100 228 138 124 73 152 93 145 105 -3 4 14 20 36
36 33 22 37 29 25 36 -11 6 -51 -7 -130 -42 -63 -27 -117 -50 -120 -50 -8 0
42 100 62 123 30 34 5 16 -46 -33 -30 -29 -58 -48 -64 -44 -7 5 -8 2 -3 -7 5
-8 5 -11 0 -7 -4 4 -38 -20 -76 -53 -57 -48 -77 -59 -107 -60 -20 -1 -29 -3
-18 -6 15 -4 13 -8 -13 -24 -39 -23 -48 -24 -30 -2 12 15 12 16 -1 8 -8 -4
-27 -17 -42 -27 -24 -17 -28 -17 -28 -3 0 8 8 18 18 21 9 3 24 10 32 15 8 5
38 21 65 35 28 15 81 47 120 71 38 25 75 46 82 47 14 2 75 57 69 63 -2 2 -30
-10 -62 -28 -33 -17 -72 -32 -88 -34 l-29 -2 22 18 c13 11 27 16 33 13 5 -3
23 7 40 22 17 16 28 23 24 17 -4 -7 -3 -13 2 -13 5 0 15 14 22 30 7 17 31 56
53 88 27 37 40 66 39 84 -1 16 9 45 24 67 14 22 24 46 21 53 -4 9 -6 8 -6 -3z
m-351 -20 c0 -5 5 -7 10 -4 16 10 11 -29 -7 -55 -9 -13 -18 -35 -19 -49 -2
-13 -17 -38 -34 -55 -39 -39 -39 -20 0 29 16 20 27 42 23 48 -8 12 -26 -12
-56 -74 -14 -31 -38 -58 -69 -79 -26 -18 -49 -38 -52 -45 -7 -18 -136 -109
-143 -101 -4 3 -17 -1 -30 -9 -67 -43 -78 -48 -43 -16 19 17 49 37 66 45 16 8
38 24 49 36 10 11 24 20 30 20 7 0 34 26 60 58 73 86 178 192 186 186 5 -2 13
4 18 15 15 27 14 38 -1 19 -7 -8 -21 -18 -32 -22 -17 -6 -17 -5 -4 16 8 13 18
29 22 36 9 15 26 16 26 1z m138 -32 c17 -20 3 -84 -25 -111 -13 -14 -103 -80
-198 -148 -96 -68 -177 -129 -180 -137 -3 -7 11 1 31 19 20 17 48 37 63 43 14
6 75 49 135 94 59 46 113 83 120 83 15 -1 -79 -87 -132 -121 -24 -15 -37 -29
-31 -31 7 -2 -24 -31 -69 -64 -63 -45 -104 -66 -179 -91 -102 -33 -109 -44
-13 -18 66 18 63 17 55 5 -9 -14 -1 -13 40 7 19 9 35 21 35 27 1 6 16 22 34
36 19 14 62 46 96 73 34 26 66 47 71 47 13 0 11 -28 -2 -32 -7 -2 -10 -9 -8
-16 3 -8 17 -4 43 14 70 48 27 5 -97 -95 -130 -105 -151 -125 -212 -209 -22
-29 -42 -47 -44 -40 -5 15 -10 21 -57 76 -36 41 -72 58 -60 27 8 -21 1 -19
-28 10 l-25 25 37 1 c20 0 31 3 23 6 -11 5 -11 7 0 14 10 6 3 9 -21 9 l-35 1
39 22 c88 50 273 177 296 202 17 20 9 15 -28 -13 -30 -23 -58 -42 -63 -42 -20
0 -6 17 44 53 95 69 295 242 306 265 12 25 24 28 39 9z m76 -99 c-27 -29 -58
-60 -69 -68 -19 -13 -19 -13 -6 5 27 37 105 115 114 115 6 0 -12 -24 -39 -52z
m49 -19 c-19 -33 -131 -139 -147 -139 -10 0 145 168 157 169 5 1 0 -13 -10
-30z m-308 -179 c-3 -5 -12 -10 -18 -10 -7 0 -6 4 3 10 19 12 23 12 15 0z
m493 -23 c-15 -12 -42 -31 -60 -41 l-33 -19 20 23 c22 25 74 60 90 60 6 -1 -2
-11 -17 -23z m-235 -42 c-11 -24 -31 -42 -60 -56 -49 -24 -68 -20 -29 6 14 10
24 21 21 25 -2 4 4 15 15 25 11 10 20 15 20 11 0 -4 10 0 22 8 30 21 30 21 11
-19z m107 -27 c-25 -22 -75 -56 -112 -74 -38 -19 -68 -37 -68 -39 0 -3 9 -1
21 5 11 7 23 10 25 7 2 -2 -20 -16 -48 -32 -29 -15 -66 -37 -83 -49 -23 -15
-27 -16 -16 -3 9 12 10 17 2 17 -7 0 -9 5 -5 12 8 13 -84 -37 -101 -55 -5 -6
11 2 37 16 58 33 75 35 28 4 -62 -42 -167 -97 -172 -91 -3 3 -30 -8 -60 -25
-30 -17 -58 -31 -61 -31 -11 0 17 40 28 40 5 1 27 25 48 55 25 36 42 52 52 49
12 -5 10 -10 -8 -26 -22 -20 -22 -20 8 0 17 11 64 36 105 57 41 21 105 55 143
77 37 21 72 36 78 32 6 -3 21 4 34 16 26 24 132 78 155 79 8 0 -5 -18 -30 -41z
m-300 14 c0 -4 -10 -13 -22 -21 -23 -14 -23 -14 -4 8 20 22 26 25 26 13z m292
-58 c-24 -14 -46 -24 -49 -21 -5 6 65 46 82 46 6 1 -9 -11 -33 -25z m-473 -92
c-19 -20 -37 -41 -41 -46 -5 -6 -8 -2 -8 8 0 20 67 92 77 82 4 -3 -9 -23 -28
-44z m181 23 c-33 -19 -50 -18 -26 0 11 8 27 15 35 15 10 -1 7 -6 -9 -15z
m-606 -26 c-4 -7 0 -9 14 -5 49 16 211 -131 198 -179 -3 -11 -6 -42 -6 -68 0
-30 -4 -46 -10 -42 -5 3 -10 14 -10 25 0 10 -28 47 -63 83 -48 50 -68 65 -91
65 -26 0 -23 -3 25 -30 57 -30 93 -68 64 -68 -8 0 -15 -4 -15 -10 0 -5 6 -7
14 -4 17 6 46 -43 46 -77 0 -14 5 -19 14 -16 20 8 29 -23 17 -54 -9 -23 -10
-23 -10 -2 -1 38 -21 37 -21 -1 0 -20 -4 -36 -9 -36 -5 0 -12 -23 -15 -52 -5
-37 -10 -48 -16 -38 -7 11 -10 8 -10 -13 0 -16 -4 -26 -10 -22 -6 4 -10 -6
-10 -24 0 -36 -16 -77 -44 -111 -15 -17 -16 -21 -3 -11 11 9 17 10 17 2 0 -6
-3 -11 -7 -12 -5 0 -18 -2 -30 -3 -19 -2 -21 0 -11 12 13 16 50 114 44 119 -6
7 -25 -23 -44 -72 l-19 -49 -8 60 c-6 47 -9 54 -15 34 l-7 -25 -11 25 c-11 23
-11 22 -6 -10 4 -27 0 -42 -14 -60 l-19 -23 -7 59 c-9 80 -34 152 -56 164 -10
6 -22 19 -25 31 -4 11 -9 18 -12 16 -2 -3 5 -27 17 -54 12 -26 27 -73 35 -103
9 -36 14 -46 15 -30 2 24 3 23 10 -5 4 -16 8 -46 8 -65 l0 -35 -8 30 c-7 29
-8 28 -9 -11 -1 -37 -8 -47 -70 -107 -38 -37 -74 -67 -80 -67 -7 0 0 22 14 50
14 27 25 53 25 57 -1 4 -10 -9 -21 -30 -11 -22 -23 -37 -26 -34 -2 3 0 14 6
25 6 12 11 38 11 59 -1 41 -50 227 -64 240 -5 4 -6 -2 -3 -14 3 -13 3 -23 1
-23 -2 0 -22 20 -45 45 -55 60 -64 49 -11 -14 52 -61 85 -117 78 -130 -9 -14
12 -63 24 -56 6 4 10 -12 10 -40 0 -36 -3 -46 -14 -42 -8 3 -13 -1 -12 -9 1
-16 -74 -123 -86 -124 -4 0 -10 10 -13 23 -30 137 -49 209 -52 195 -2 -9 2
-41 10 -72 9 -34 11 -58 6 -62 -5 -3 -7 -22 -3 -41 5 -26 4 -34 -5 -29 -6 4
-11 2 -11 -4 0 -6 7 -13 15 -16 18 -7 20 -35 3 -52 -20 -20 -29 -14 -22 16 4
21 3 24 -5 12 -8 -12 -11 -8 -11 20 0 19 -3 46 -6 60 l-5 25 16 -25 c16 -25
16 -25 9 -2 -3 13 -17 47 -30 75 l-25 52 8 -40 c4 -22 7 -56 8 -77 0 -20 3
-34 8 -31 4 2 7 -9 7 -26 0 -32 -15 -50 -23 -29 -3 7 -6 3 -6 -10 -1 -12 -9
-26 -18 -29 -10 -4 -24 -14 -30 -22 -10 -13 -14 -14 -21 -3 -7 11 -11 8 -15
-10 -4 -12 -15 -29 -27 -36 -19 -12 -20 -10 -20 40 0 38 3 49 10 38 15 -23 12
7 -6 50 l-14 35 6 -32 c8 -48 -15 -42 -49 12 -16 25 -32 45 -36 45 -5 0 -34
26 -66 58 -50 49 -53 50 -21 12 21 -25 59 -86 86 -137 43 -83 47 -96 42 -143
-5 -51 -4 -52 19 -46 23 7 23 6 5 -8 -14 -11 -22 -13 -27 -5 -3 6 -10 9 -15 7
-5 -1 -11 33 -14 77 l-4 80 -6 -90 c-4 -73 -8 -90 -22 -93 -11 -2 -18 5 -21
20 -4 20 -4 19 -6 -5 -2 -41 -21 -23 -22 21 l-2 37 -7 -35 -7 -35 -3 30 c-2
30 -2 30 -10 5 -7 -23 -8 -23 -11 10 -1 19 -3 40 -3 46 -2 23 -30 64 -43 64
-20 0 -16 -21 9 -47 19 -20 22 -35 22 -115 1 -91 1 -93 -22 -91 -13 2 -21 -1
-17 -7 3 -6 -3 -10 -14 -10 -25 0 -36 34 -28 90 4 30 0 46 -18 70 -21 28 -23
29 -28 10 -3 -11 -1 -18 3 -15 13 8 30 -62 30 -120 0 -48 -2 -51 -31 -62 -45
-17 -52 -8 -45 51 3 28 1 65 -4 81 -9 29 -10 28 -5 -7 3 -20 3 -48 -1 -63 -5
-21 -9 -23 -20 -14 -12 10 -13 8 -4 -15 10 -27 4 -76 -9 -76 -3 0 -16 -3 -28
-6 -20 -5 -23 -2 -24 22 -2 28 -2 28 -8 -4 -7 -40 -24 -46 -31 -12 -3 19 -5
14 -10 -20 l-6 -45 -14 44 c-8 25 -24 55 -36 68 -25 27 -45 32 -22 6 26 -30
52 -87 40 -91 -5 -1 -8 -12 -5 -22 3 -12 0 -20 -7 -20 -6 0 -10 10 -9 23 1 12
-1 29 -4 37 -3 8 -8 24 -11 35 -3 11 -3 -12 0 -51 4 -48 2 -80 -7 -95 -11 -22
-14 -18 -30 60 -19 85 -28 106 -36 84 -3 -7 -13 -13 -24 -13 -26 0 -24 -12 6
-44 14 -15 25 -32 25 -39 0 -7 4 -6 10 3 9 13 10 13 10 0 0 -8 -5 -22 -10 -30
-6 -9 -10 -10 -10 -3 0 7 -12 0 -26 -14 l-27 -27 -21 27 c-25 31 -36 34 -35
10 0 -12 2 -13 6 -5 4 10 8 9 18 -5 7 -10 11 -22 8 -26 -3 -5 -9 -3 -14 4 -7
11 -9 11 -9 -2 0 -9 -18 -24 -40 -34 -23 -10 -52 -28 -65 -41 l-24 -22 22 -8
c28 -10 -148 -18 -218 -9 -77 9 -80 14 -55 73 12 28 30 58 41 68 22 20 24 9 4
-26 -8 -14 -14 -34 -14 -45 0 -17 2 -16 11 5 6 14 22 49 34 78 13 30 37 71 54
92 17 21 28 44 25 52 -6 16 62 101 75 93 4 -3 14 3 21 12 10 12 10 14 2 9 -7
-4 -13 -2 -13 3 0 6 6 11 14 11 7 0 41 35 75 79 60 76 195 211 211 211 23 0
192 140 320 264 263 256 334 321 410 372 41 28 75 55 75 60 0 16 16 34 28 34
7 0 3 -7 -7 -15 -11 -8 -16 -15 -12 -15 5 0 24 13 42 30 19 16 52 35 75 41 33
10 37 14 23 20 -14 5 -2 12 46 27 36 12 61 21 55 22 -5 0 -1 7 9 15 29 22 17
19 -50 -13 -32 -16 -74 -34 -91 -41 -18 -8 -33 -17 -33 -21 0 -4 -7 -10 -15
-14 -9 -3 -15 0 -15 10 0 21 184 108 213 100 12 -3 29 -1 37 4 22 14 143 13
134 -1z m521 -9 c-7 -11 -27 -20 -75 -35 -36 -10 -15 10 35 34 42 20 52 20 40
1z m-329 -55 c26 -35 27 -59 2 -37 -20 17 -50 72 -39 72 5 0 22 -16 37 -35z
m145 -135 c-13 -11 -28 -20 -35 -20 -6 0 3 9 19 20 38 25 47 25 16 0z m-811 7
c0 -2 -15 -14 -32 -27 l-33 -23 24 26 c21 23 41 35 41 24z m709 -135 c-1 -59
-5 -118 -9 -132 -5 -15 -8 28 -9 113 -1 90 3 136 9 132 6 -4 10 -51 9 -113z
m-809 63 c-13 -14 -26 -23 -28 -20 -3 3 5 16 18 30 13 14 26 23 28 20 3 -3 -5
-16 -18 -30z m840 10 c0 -8 -4 -15 -10 -15 -5 0 -10 7 -10 15 0 8 5 15 10 15
6 0 10 -7 10 -15z m-910 -49 c0 -2 -8 -10 -17 -17 -16 -13 -17 -12 -4 4 13 16
21 21 21 13z m907 -73 c-3 -10 -5 -4 -5 12 0 17 2 24 5 18 2 -7 2 -21 0 -30z
m-77 -105 c0 -74 -8 -108 -24 -108 -13 0 -15 88 -2 138 13 52 26 37 26 -30z
m29 -54 c-6 -16 -13 -24 -16 -18 -2 6 2 24 8 40 6 16 13 24 16 18 2 -6 -2 -24
-8 -40z m-89 -78 c0 -3 -4 -8 -10 -11 -5 -3 -10 -1 -10 4 0 6 5 11 10 11 6 0
10 -2 10 -4z m100 -6 c13 -9 13 -11 0 -20 -12 -8 -11 -10 6 -10 12 0 27 -7 34
-15 7 -8 16 -13 20 -10 4 3 13 -2 20 -10 7 -8 16 -13 20 -10 4 3 13 -2 20 -10
6 -7 17 -12 24 -9 6 2 30 -11 53 -31 23 -19 48 -35 57 -35 9 0 16 -7 16 -16 0
-14 -3 -14 -15 -4 -13 11 -15 8 -15 -18 0 -17 -4 -34 -10 -37 -5 -3 -10 -11
-10 -16 0 -6 4 -8 9 -4 6 3 12 -10 15 -30 4 -19 8 -50 11 -69 3 -19 2 -54 -2
-78 l-8 -43 -6 50 -6 50 -1 -62 c-2 -46 -7 -68 -20 -81 -10 -10 -17 -23 -15
-29 4 -12 -35 -63 -49 -63 -4 0 -8 17 -8 38 0 54 -11 59 -37 15 l-23 -38 0 44
c0 50 -11 46 -29 -11 -12 -36 -13 -37 -62 -36 -27 1 -49 5 -49 8 0 4 9 19 21
34 11 14 17 26 13 26 -4 0 -13 -8 -20 -17 -12 -16 -13 -13 -14 25 0 24 -4 41
-9 38 -5 -3 -7 -24 -4 -46 3 -21 3 -47 -1 -56 -6 -15 -9 -16 -21 -3 -10 10
-17 55 -23 154 -8 121 -9 129 -11 56 -1 -97 -19 -211 -32 -211 -5 0 -10 19
-11 43 l-1 42 -4 -38 c-5 -41 -10 -45 -60 -51 -37 -4 -39 0 -18 28 19 25 19
36 1 36 -10 0 -16 14 -19 43 l-4 42 -1 -47 c-2 -55 -17 -98 -33 -98 -7 0 -8 7
-4 18 16 41 15 44 -5 9 -25 -46 -47 -40 -24 6 26 51 36 60 45 45 6 -9 9 -6 9
10 0 12 -3 22 -7 22 -5 0 -30 -28 -58 -62 -39 -48 -51 -58 -53 -43 -2 18 -10
20 -67 17 l-63 -4 5 41 c4 27 2 41 -6 41 -6 0 -11 8 -11 17 0 9 -3 14 -6 11
-3 -4 -1 -22 4 -41 5 -19 6 -41 1 -48 -12 -20 -16 -11 -23 58 -7 61 -7 62 26
86 47 35 250 159 264 161 7 1 42 29 80 61 37 33 76 59 87 60 11 0 22 6 25 14
3 9 0 11 -8 6 -8 -5 -11 -3 -8 6 3 8 10 13 15 12 6 -1 18 16 28 38 11 24 24
38 31 35 8 -3 11 0 7 10 -6 16 5 18 27 4z m-244 -76 c-7 -25 -39 -33 -52 -12
-4 6 -3 8 3 5 6 -4 18 13 28 36 16 37 19 39 22 18 3 -12 2 -34 -1 -47z m128
-5 c-15 -16 -32 -29 -38 -29 -5 0 2 13 17 28 27 28 36 49 17 37 -5 -3 -10 -2
-10 3 0 18 13 21 27 6 14 -14 13 -18 -13 -45z m254 21 c58 -42 52 -46 -10 -9
-64 37 -66 39 -46 39 8 0 34 -14 56 -30z m42 3 c34 -22 80 -65 80 -74 0 -4 -8
-6 -17 -4 -10 1 -17 8 -16 13 2 6 -17 25 -42 42 -25 17 -45 33 -45 35 0 9 16
5 40 -12z m880 -7 c0 -3 -4 -8 -10 -11 -5 -3 -10 -1 -10 4 0 6 5 11 10 11 6 0
10 -2 10 -4z m-1264 -63 c-2 -9 -18 -28 -37 -42 -30 -23 -32 -23 -15 -3 11 12
15 22 11 22 -4 0 0 9 10 20 22 24 34 26 31 3z m-118 -5 c-2 -6 -20 -23 -39
-37 l-34 -26 30 37 c30 36 50 49 43 26z m23 -67 c-16 -22 -137 -101 -155 -101
-1 0 -3 7 -3 15 0 16 46 56 102 90 22 13 19 7 -15 -24 l-45 -41 37 21 c21 11
48 31 60 45 32 33 44 30 19 -5z m599 -1 c0 -5 -4 -10 -10 -10 -5 0 -10 5 -10
10 0 6 5 10 10 10 6 0 10 -4 10 -10z m-825 -31 c-5 -16 -4 -19 5 -14 9 5 11 4
6 -4 -4 -6 -11 -9 -16 -6 -11 7 -22 -24 -13 -38 3 -7 3 -9 -2 -5 -4 4 -16 -3
-26 -15 -33 -40 -23 10 13 59 35 49 43 54 33 23z m-96 -62 c1 -10 -3 -15 -9
-12 -5 3 -10 23 -9 43 1 33 2 34 9 12 4 -14 8 -33 9 -43z m897 8 c5 -39 0 -85
-10 -74 -2 2 -6 30 -10 62 -7 68 9 79 20 12z m29 25 c3 -5 1 -10 -4 -10 -6 0
-11 5 -11 10 0 6 2 10 4 10 3 0 8 -4 11 -10z m45 -5 c0 -8 -4 -15 -10 -15 -5
0 -10 7 -10 15 0 8 5 15 10 15 6 0 10 -7 10 -15z m-1245 -62 c30 -46 35 -122
8 -144 -15 -13 -16 -10 -10 31 4 31 0 61 -13 97 -10 29 -17 53 -15 53 3 0 16
-17 30 -37z m1370 28 c-11 -4 -37 -11 -57 -14 -29 -4 -38 -2 -38 9 0 11 14 14
58 13 38 0 50 -3 37 -8z m-108 -63 c-2 -13 -4 -3 -4 22 0 25 2 35 4 23 2 -13
2 -33 0 -45z m178 52 c-3 -5 -24 -13 -46 -16 -22 -4 -41 -10 -44 -14 -2 -4 25
-1 60 5 36 7 65 9 65 4 0 -4 -17 -11 -37 -14 -21 -3 -53 -13 -71 -21 -18 -8
-46 -14 -62 -14 -25 0 -30 4 -30 25 0 26 2 27 95 44 69 12 77 12 70 1z m78 3
c-7 -2 -19 -2 -25 0 -7 3 -2 5 12 5 14 0 19 -2 13 -5z m-1097 -27 c-10 -6 -48
-32 -85 -59 -51 -37 -66 -53 -68 -75 -1 -15 -5 -47 -8 -70 -6 -37 -10 -43 -26
-39 -10 3 -19 1 -19 -4 0 -5 -15 -9 -34 -7 -27 1 -35 7 -39 25 -2 13 2 28 9
34 11 9 14 6 15 -17 l1 -29 7 30 c6 28 7 29 19 10 10 -18 11 -17 12 12 0 17 5
33 12 35 7 3 13 20 13 39 0 28 4 34 22 33 12 0 21 4 20 10 -2 12 155 98 163
89 3 -3 -3 -10 -14 -17z m771 -8 c-3 -7 -5 -2 -5 12 0 14 2 19 5 13 2 -7 2
-19 0 -25z m-1917 -27 c0 -14 -268 -261 -282 -261 -7 0 14 26 47 56 l60 56
-60 -49 c-145 -120 -198 -149 -300 -160 -30 -3 -36 -2 -25 6 20 14 15 14 -50
-4 -50 -13 -77 -13 -163 0 -25 4 -26 3 -13 -10 8 -8 27 -15 42 -15 19 0 25 -3
18 -10 -12 -12 -76 -2 -68 11 3 5 -10 9 -28 9 -49 0 -110 19 -102 32 5 8 -3 9
-24 5 -19 -4 -32 -2 -32 3 0 6 16 10 35 10 22 0 38 6 41 14 6 15 59 39 248
110 66 25 123 51 127 57 4 6 18 13 32 14 15 2 52 15 84 30 32 15 132 44 223
65 186 43 190 43 190 31z m1907 -13 c-3 -8 -6 -5 -6 6 -1 11 2 17 5 13 3 -3 4
-12 1 -19z m396 6 c98 -10 55 -17 -57 -9 -59 4 -103 11 -100 16 3 5 27 7 52 5
26 -3 73 -8 105 -12z m-1433 -14 c0 -5 -5 -10 -11 -10 -5 0 -7 5 -4 10 3 6 8
10 11 10 2 0 4 -4 4 -10z m1195 -10 c3 -5 -1 -10 -10 -10 -9 0 -13 5 -10 10 3
6 8 10 10 10 2 0 7 -4 10 -10z m187 -19 c11 -11 10 -13 -3 -8 -9 3 -41 8 -72
12 -32 4 -57 10 -57 14 0 12 119 -4 132 -18z m-197 -1 c18 -8 17 -9 -7 -9 -16
-1 -28 4 -28 9 0 12 8 12 35 0z m405 -22 c0 -14 -16 -9 -36 13 -19 21 -19 21
9 8 15 -7 27 -16 27 -21z m-1523 -26 c-6 -7 -16 -11 -24 -8 -7 3 -13 1 -13 -4
0 -6 -10 -8 -22 -6 -13 2 -37 -7 -55 -22 -28 -20 -33 -22 -33 -8 0 10 4 15 9
12 5 -4 11 -2 13 3 6 19 92 70 99 60 4 -6 9 -3 14 8 7 17 8 17 15 -2 4 -11 3
-26 -3 -33z m93 7 c0 -6 -4 -7 -10 -4 -5 3 -10 11 -10 16 0 6 5 7 10 4 6 -3
10 -11 10 -16z m947 -71 c-2 -18 -4 -4 -4 32 0 36 2 50 4 33 2 -18 2 -48 0
-65z m-56 55 c2 -39 -3 -97 -10 -117 -7 -17 -9 -15 -13 17 -2 20 -1 37 3 37 5
0 7 18 6 40 -2 22 1 40 5 40 4 0 8 -8 9 -17z m-895 -40 c12 -59 11 -83 -4 -83
-7 0 -11 4 -7 9 3 5 1 12 -5 16 -5 3 -10 29 -10 56 0 57 14 58 26 2z m1372 16
c23 -10 42 -20 42 -23 0 -6 -104 29 -127 44 -27 16 32 2 85 -21z m-515 -111
c-2 -5 -11 -8 -20 -8 -13 0 -14 8 -9 50 11 83 20 91 27 25 4 -33 5 -63 2 -67z
m62 65 c-3 -19 -9 -33 -12 -30 -3 3 -2 25 2 49 5 24 10 37 12 30 3 -7 2 -29
-2 -49z m-456 -47 c-9 -8 -10 -2 -5 29 3 22 7 47 8 55 1 8 3 -5 5 -29 3 -26
-1 -48 -8 -55z m981 84 c0 -5 -7 -7 -15 -4 -8 4 -15 8 -15 10 0 2 7 4 15 4 8
0 15 -4 15 -10z m-3060 -20 c-8 -5 -22 -9 -30 -9 -10 0 -8 3 5 9 27 12 43 12
25 0z m1356 -13 c-2 -13 0 -30 5 -38 7 -11 9 -11 9 4 0 9 7 17 15 17 10 0 14
-10 13 -35 -1 -32 -4 -35 -32 -34 -17 1 -23 3 -13 6 9 2 17 9 17 15 0 6 -8 7
-17 3 -10 -4 -36 -9 -57 -13 -50 -7 -41 13 13 29 40 12 56 45 17 35 -19 -5
-18 -3 4 14 31 25 31 25 26 -3z m-167 -11 c10 -11 8 -17 -6 -26 -16 -10 -15
-10 5 -5 31 9 27 -2 -8 -20 l-30 -16 0 34 c0 47 16 61 39 33z m765 -1 c-4 -8
-10 -15 -15 -15 -4 0 -6 7 -3 15 4 8 10 15 15 15 4 0 6 -7 3 -15z m386 -20 c0
-28 -4 -35 -20 -35 -24 0 -24 3 -5 40 20 39 25 38 25 -5z m-890 0 c0 -14 -4
-25 -10 -25 -5 0 -10 11 -10 25 0 14 5 25 10 25 6 0 10 -11 10 -25z m-33 -7
c-3 -8 -6 -5 -6 6 -1 11 2 17 5 13 3 -3 4 -12 1 -19z m859 -15 c-11 -11 -17 4
-9 23 7 18 8 18 11 1 2 -10 1 -21 -2 -24z m-516 7 c-20 -13 -107 -13 -115 0
-4 6 19 10 62 10 48 0 63 -3 53 -10z m-526 -35 c-18 -14 -17 -15 10 -9 21 5
27 4 22 -5 -4 -6 -31 -11 -64 -10 -31 1 -48 4 -37 6 11 3 27 11 35 18 17 14
43 24 49 19 3 -3 -4 -11 -15 -19z m361 2 c7 -7 4 -8 -8 -3 -10 3 -25 6 -33 6
-8 0 -14 5 -14 11 0 12 40 2 55 -14z m119 4 c3 -5 31 -7 62 -5 52 4 56 3 51
-16 -7 -26 1 -25 31 3 l24 22 46 -50 c25 -27 57 -69 72 -92 15 -23 30 -39 34
-36 4 4 12 1 17 -7 19 -28 -2 33 -29 83 -28 52 -64 83 -55 47 3 -11 9 -23 14
-26 5 -3 9 -11 9 -17 0 -11 -79 71 -80 83 0 3 29 7 65 8 43 2 65 -1 65 -9 0
-7 21 -10 63 -8 34 2 68 0 75 -5 7 -4 19 -2 28 5 12 10 20 7 44 -16 37 -35 30
-48 -7 -14 -15 13 -9 3 14 -23 27 -29 47 -64 54 -92 10 -43 39 -84 39 -57 0 6
-5 11 -10 11 -6 0 -8 12 -4 28 4 22 3 24 -6 12 -10 -13 -11 -12 -6 4 4 10 1
25 -5 33 -7 7 -9 16 -6 20 3 3 16 -11 28 -31 23 -39 37 -50 18 -13 -16 29 -80
110 -96 120 -7 4 -13 12 -13 18 0 15 41 -9 68 -40 l23 -26 -17 28 c-31 51 -6
39 35 -17 23 -31 44 -56 47 -56 3 0 -10 22 -30 49 -20 27 -36 52 -36 56 0 3
30 3 68 -1 37 -4 76 -8 88 -8 26 -1 100 -52 123 -85 12 -18 16 -34 11 -51 -4
-14 -3 -34 1 -45 6 -15 8 -11 10 20 4 75 -1 93 -37 122 -28 24 -28 24 -4 18
14 -4 37 -19 53 -33 16 -15 27 -20 27 -13 0 11 3 11 15 1 13 -11 14 -10 9 5
-7 16 -3 17 27 11 61 -12 119 -46 134 -80 13 -28 14 -28 9 -4 -5 23 -3 26 15
21 11 -3 28 -17 37 -31 16 -24 16 -25 -2 -18 -17 7 -17 6 0 -13 17 -19 16 -20
-28 -46 -25 -15 -44 -30 -41 -35 6 -10 -84 -84 -92 -76 -4 3 -15 -2 -26 -11
-22 -20 -22 -19 7 50 27 61 9 42 -20 -22 -14 -33 -33 -62 -42 -66 -23 -8 -25
1 -8 27 9 14 13 28 9 31 -4 4 -13 -7 -20 -24 -7 -18 -16 -29 -19 -26 -3 3 -1
16 6 29 8 16 5 14 -12 -7 -60 -78 -117 -106 -78 -37 13 22 14 27 3 12 -10 -14
-28 -35 -40 -48 -13 -13 -23 -27 -23 -32 0 -6 -7 -10 -16 -10 -14 0 -14 2 0
22 23 32 20 45 -3 17 -13 -16 -38 -28 -78 -36 l-58 -12 55 6 c42 4 52 2 44 -7
-7 -6 -40 -14 -75 -16 -35 -2 -56 -1 -47 3 12 5 14 13 9 22 -7 11 -13 8 -26
-13 -24 -37 -49 -36 -29 2 7 15 14 32 14 37 -1 6 -8 -2 -16 -17 -18 -35 -48
-39 -39 -5 3 12 -3 6 -14 -14 -23 -41 -37 -54 -69 -62 -23 -5 -24 -4 -18 31
l5 37 -12 -32 c-13 -35 -34 -60 -42 -52 -3 3 6 39 20 79 14 40 23 75 21 77 -2
2 -15 -30 -29 -71 -14 -41 -35 -85 -46 -97 -24 -26 -24 -25 -12 19 l10 33 -29
-31 c-15 -16 -38 -30 -50 -30 -24 0 -24 1 27 75 7 11 13 24 13 29 0 5 -17 -18
-39 -51 -38 -59 -71 -86 -71 -58 0 7 5 17 10 20 6 3 10 13 10 22 0 14 -3 14
-20 -2 -19 -17 -20 -17 -20 1 -1 17 -2 17 -13 3 -50 -63 -66 -78 -94 -84 l-32
-6 4 38 5 38 -9 -33 c-11 -42 -31 -65 -32 -36 0 16 -2 15 -11 -6 -6 -15 -12
-20 -15 -13 -3 10 -8 9 -20 -2 -8 -8 -26 -15 -39 -15 -21 0 -24 4 -19 23 5 18
3 17 -10 -5 -9 -16 -20 -28 -26 -28 -6 0 -7 -4 -4 -10 3 -5 4 -10 1 -10 -2 0
-11 -3 -20 -6 -14 -5 -14 -3 -1 30 8 19 14 50 14 68 -1 28 -3 26 -9 -13 -12
-72 -24 -85 -92 -108 -75 -25 -84 -26 -67 -4 8 9 -2 5 -22 -10 -34 -26 -98
-51 -106 -43 -2 2 22 30 54 62 32 31 46 48 32 36 -14 -12 -28 -19 -32 -16 -4
4 -13 1 -21 -5 -8 -7 -27 -14 -41 -16 -14 -1 -39 -15 -56 -31 -16 -15 -29 -23
-29 -18 0 6 11 21 25 34 14 13 25 27 25 31 0 3 -19 -12 -43 -35 -24 -23 -40
-48 -38 -56 3 -9 1 -11 -5 -5 -5 5 -13 13 -17 16 -5 4 0 15 12 26 19 18 75
113 67 113 -3 0 -14 -16 -26 -35 -12 -19 -28 -35 -36 -35 -8 0 -14 -7 -14 -15
0 -15 -49 -45 -72 -45 -7 1 4 10 25 21 20 11 37 22 37 24 0 3 -23 -6 -51 -21
-50 -25 -76 -27 -124 -9 -16 5 -17 5 -5 -4 13 -9 13 -11 -2 -11 -11 0 -18 8
-18 20 0 11 4 20 10 20 5 0 19 23 31 50 19 44 25 50 53 51 30 2 30 2 4 6 -27
4 -35 13 -22 26 3 3 7 26 9 51 2 37 -1 46 -16 51 -11 4 -16 11 -13 17 4 7 9 6
14 -1 4 -8 15 -9 30 -3 15 6 19 11 12 16 -20 12 -13 24 11 19 22 -4 22 -4 2
12 -11 9 -27 20 -35 26 -12 7 -12 10 -2 17 9 6 6 12 -13 20 -22 10 -24 15 -15
33 7 11 9 23 6 26 -7 7 -27 -7 -22 -16 7 -11 -27 -10 -41 2 -7 5 -13 20 -13
34 0 15 -4 22 -11 18 -6 -4 -8 -14 -5 -22 3 -8 1 -11 -4 -8 -6 3 -10 16 -11
28 l0 22 -9 -22 c-12 -31 -30 -29 -30 2 0 31 -13 32 -33 3 l-14 -23 0 27 c0
21 12 37 56 71 72 56 115 65 173 37 42 -21 42 -21 18 -1 -14 11 -20 21 -13 21
23 0 68 -24 101 -54 l33 -31 -15 29 c-14 28 -82 77 -133 97 -21 8 -24 7 -19
-7 5 -13 2 -15 -16 -10 -13 3 -29 6 -36 6 -7 0 -10 5 -7 10 3 6 15 10 26 10
10 0 19 4 19 9 0 5 14 14 31 20 40 14 42 14 33 -1 -4 -7 2 -5 13 5 11 9 32 17
47 17 15 0 37 5 48 11 23 12 138 -6 138 -23 0 -4 10 -6 23 -3 13 4 44 -3 71
-15 27 -11 51 -18 54 -15 7 6 -119 65 -140 65 -10 0 -18 5 -18 10 0 6 24 10
53 10 64 0 129 -28 182 -79 22 -21 50 -41 63 -44 21 -5 20 -3 -10 36 -17 23
-45 56 -61 74 -27 29 -28 31 -9 37 11 4 50 -5 90 -19 38 -14 77 -23 85 -19 8
3 18 0 22 -6 6 -9 9 -9 15 0 15 25 116 -46 148 -105 8 -14 12 -16 12 -5 0 9 9
3 21 -15 12 -17 18 -21 14 -10 -4 11 -8 26 -9 32 -4 25 -61 74 -113 98 -29 13
-53 28 -53 34 0 5 -9 7 -20 4 -14 -4 -20 0 -20 11 0 17 25 22 34 7z m-1429
-31 c-10 -11 -23 -20 -28 -20 -6 0 -2 9 8 20 10 11 23 20 28 20 6 0 2 -9 -8
-20z m1200 -11 c19 -17 35 -34 35 -38 0 -4 -29 7 -65 23 -49 23 -61 32 -47 38
30 12 40 9 77 -23z m-395 -3 c0 -2 -7 -7 -16 -10 -8 -3 -12 -2 -9 4 6 10 25
14 25 6z m-1533 -22 c-3 -3 -12 -4 -19 -1 -8 3 -5 6 6 6 11 1 17 -2 13 -5z
m733 -9 c-7 -9 -15 -13 -17 -11 -7 7 7 26 19 26 6 0 6 -6 -2 -15z m2375 4 c11
-17 -1 -21 -15 -4 -8 9 -8 15 -2 15 6 0 14 -5 17 -11z m-2355 -38 c-18 -36
-40 -61 -40 -46 0 17 46 85 57 85 2 0 -6 -18 -17 -39z m-747 12 c-7 -2 -19 -2
-25 0 -7 3 -2 5 12 5 14 0 19 -2 13 -5z m597 -13 c0 -5 -5 -10 -11 -10 -5 0
-7 5 -4 10 3 6 8 10 11 10 2 0 4 -4 4 -10z m100 1 c0 -6 -12 -23 -26 -38 -28
-30 -28 -29 10 35 9 14 16 16 16 3z m1295 -29 c-6 -7 -35 18 -35 31 0 5 9 2
20 -8 11 -10 18 -20 15 -23z m-1569 13 c-11 -8 -25 -15 -30 -15 -6 0 -2 7 8
15 11 8 25 15 30 15 6 0 2 -7 -8 -15z m224 -24 c-25 -36 -40 -40 -40 -11 0 29
3 34 22 35 10 1 21 5 25 8 17 18 13 -5 -7 -32z m-72 7 c-3 -7 -17 -15 -33 -16
-25 -3 -27 -2 -16 12 16 19 55 22 49 4z m797 -19 c5 -5 -6 -9 -28 -9 -35 0
-45 8 -30 23 8 8 43 -1 58 -14z m-685 -9 c-6 -11 -13 -20 -16 -20 -2 0 0 9 6
20 6 11 13 20 16 20 2 0 0 -9 -6 -20z m610 -20 c-8 -5 -24 -10 -35 -10 -17 0
-17 2 -5 10 8 5 24 10 35 10 17 0 17 -2 5 -10z m-815 -20 c4 -6 -5 -10 -20
-10 -15 0 -24 4 -20 10 3 6 12 10 20 10 8 0 17 -4 20 -10z m103 3 c-10 -2 -26
-2 -35 0 -10 3 -2 5 17 5 19 0 27 -2 18 -5z m668 -28 c-22 -17 -36 -19 -36 -7
0 14 12 22 34 22 21 -1 21 -1 2 -15z m-115 -17 c2 -22 -2 -43 -12 -52 -5 -6
-9 4 -9 27 0 33 18 55 21 25z m-31 -12 c0 -8 -4 -17 -9 -21 -12 -7 -24 12 -16
25 9 15 25 12 25 -4z m98 -15 c0 -17 -5 -32 -14 -35 -8 -3 -14 1 -14 9 0 8 5
15 11 15 5 0 7 5 4 10 -5 9 1 30 9 30 2 0 3 -13 4 -29z m-176 -23 c-4 -4 -18
-5 -31 -1 l-23 6 23 13 c18 9 26 9 31 1 4 -7 4 -15 0 -19z m38 22 c0 -5 -5
-10 -11 -10 -5 0 -7 5 -4 10 3 6 8 10 11 10 2 0 4 -4 4 -10z m186 -47 c-11
-11 -17 4 -9 23 7 18 8 18 11 1 2 -10 1 -21 -2 -24z m-152 12 c18 -14 14 -35
-7 -35 -15 0 -38 35 -30 44 9 9 16 7 37 -9z m-44 -16 c0 -5 -9 -9 -20 -9 -22
0 -27 16 -7 23 15 5 27 -1 27 -14z m145 -9 c-3 -5 -10 -10 -16 -10 -5 0 -9 5
-9 10 0 6 7 10 16 10 8 0 12 -4 9 -10z m-734 -12 c0 -10 2 -10 6 0 7 18 41 15
65 -8 12 -11 29 -20 37 -19 9 0 6 4 -8 10 -13 5 -21 12 -18 16 4 3 20 0 37 -7
23 -9 28 -15 18 -21 -9 -6 -3 -9 17 -9 16 0 65 -8 108 -17 63 -13 80 -14 86
-4 5 7 21 12 37 11 16 -1 31 -1 34 0 3 0 35 3 71 4 36 2 81 10 99 20 42 20 51
20 44 -1 -5 -15 -4 -16 5 -3 6 8 21 16 33 16 13 1 44 5 71 9 34 6 47 4 47 -4
0 -7 8 -11 17 -9 23 4 29 -28 9 -48 -15 -14 -14 -18 9 -36 14 -11 25 -29 25
-41 0 -19 -5 -16 -40 18 -25 25 -36 41 -29 46 7 4 3 9 -10 14 -32 10 -34 2 -9
-30 22 -28 10 -27 -25 3 -9 8 -19 13 -22 10 -3 -3 13 -18 35 -33 49 -34 102
-93 95 -105 -3 -5 -1 -11 5 -15 5 -3 10 -14 10 -23 0 -13 -5 -12 -21 8 -18 23
-19 23 -9 3 6 -13 7 -23 1 -23 -15 0 -22 30 -11 49 7 15 2 24 -28 48 -45 36
-170 106 -132 74 16 -14 19 -19 7 -15 -12 5 -16 2 -12 -9 5 -12 -5 -14 -67 -9
-40 2 -81 9 -92 14 -13 7 -16 7 -12 -1 5 -7 -25 -11 -91 -13 l-98 -3 90 -8
c158 -13 195 -18 195 -25 -1 -11 -120 -82 -137 -82 -9 0 -14 -3 -10 -6 3 -4
-1 -13 -10 -22 -14 -14 -14 -16 3 -22 12 -4 14 -9 6 -14 -12 -7 -62 20 -62 34
0 5 -13 13 -30 19 -49 17 -34 20 21 4 49 -14 73 -12 53 6 -5 4 -52 16 -104 25
-52 10 -107 19 -122 22 -15 3 -43 16 -62 29 -27 18 -36 20 -38 10 -2 -10 -7
-12 -18 -5 -13 8 -11 14 12 36 25 25 29 26 72 15 53 -13 144 -15 131 -2 -6 5
-50 16 -100 26 -90 17 -165 47 -165 65 0 6 -6 10 -14 10 -8 0 -16 7 -20 15 -3
8 -1 15 4 15 6 0 10 -6 11 -12z m854 -68 c3 -5 1 -10 -4 -10 -6 0 -11 5 -11
10 0 6 2 10 4 10 3 0 8 -4 11 -10z m95 0 c0 -15 -26 -23 -41 -14 -9 5 -7 10 7
15 27 11 34 10 34 -1z m-16 -45 c-4 -8 -11 -12 -16 -9 -6 4 -5 10 3 15 19 12
19 11 13 -6z m-119 -25 c10 -11 14 -20 8 -20 -5 0 -18 9 -28 20 -10 11 -14 20
-8 20 5 0 18 -9 28 -20z m75 10 c0 -5 -2 -10 -4 -10 -3 0 -8 5 -11 10 -3 6 -1
10 4 10 6 0 11 -4 11 -10z m-169 -17 c16 -10 29 -21 29 -25 0 -4 -16 2 -35 13
-33 20 -42 29 -29 29 3 0 19 -8 35 -17z m-61 -13 c0 -5 -15 -17 -32 -25 l-33
-16 28 25 c31 28 37 31 37 16z m67 -28 c22 -17 93 -108 93 -118 0 -3 -4 -3 -9
1 -5 3 -13 0 -17 -6 -4 -7 -3 -9 4 -5 6 3 13 2 16 -3 6 -8 -17 -13 -134 -27
-30 -4 -72 -15 -92 -25 -21 -11 -45 -19 -55 -19 -13 0 -15 -2 -5 -8 8 -6 3 -9
-16 -9 -16 0 -42 -9 -58 -20 -16 -11 -63 -35 -104 -54 -41 -18 -86 -41 -100
-51 -14 -9 -42 -20 -62 -24 -38 -6 -38 -6 -38 28 0 29 5 37 33 51 17 9 52 29
76 44 25 15 41 21 36 13 -6 -10 -4 -12 11 -5 10 4 34 10 53 13 20 3 28 7 21
12 -18 11 37 46 132 86 109 45 133 61 117 80 -14 17 -15 15 31 43 42 25 40 25
67 3z m213 -2 c0 -5 -4 -10 -9 -10 -6 0 -13 5 -16 10 -3 6 1 10 9 10 9 0 16
-4 16 -10z m1270 1 c0 -5 -7 -11 -15 -15 -15 -5 -20 5 -8 17 9 10 23 9 23 -2z
m-2342 -24 c6 -5 12 -16 12 -23 0 -10 -11 -8 -45 8 -25 12 -45 25 -45 30 0 10
61 -2 78 -15z m257 3 c28 -18 28 -20 8 -20 -13 0 -23 5 -23 10 0 6 -7 10 -15
10 -8 0 -15 5 -15 10 0 15 11 12 45 -10z m2175 16 c0 -2 -7 -6 -15 -10 -8 -3
-15 -1 -15 4 0 6 7 10 15 10 8 0 15 -2 15 -4z m130 -6 c0 -5 -5 -10 -11 -10
-5 0 -7 5 -4 10 3 6 8 10 11 10 2 0 4 -4 4 -10z m-1860 -7 c0 -11 -69 -57 -75
-51 -3 3 12 17 32 31 42 30 43 30 43 20z m1680 3 c0 -2 -9 -6 -20 -9 -11 -3
-18 -1 -14 4 5 9 34 13 34 5z m147 -2 c-3 -3 -12 -4 -19 -1 -8 3 -5 6 6 6 11
1 17 -2 13 -5z m-2286 -36 c21 -11 36 -25 33 -30 -3 -4 5 -8 17 -8 40 0 6 -17
-46 -24 -37 -4 -46 -3 -35 5 12 8 10 9 -10 4 -63 -16 -100 -18 -100 -5 0 7
-11 28 -25 46 -14 18 -25 36 -25 40 0 16 153 -6 191 -28z m-171 -30 c0 -13
-43 15 -48 31 -3 9 5 7 22 -4 14 -10 26 -22 26 -27z m679 28 c-14 -13 -70 -36
-64 -26 4 6 17 15 29 20 22 9 42 13 35 6z m1221 -16 c0 -20 -25 -38 -37 -26
-5 5 24 46 34 46 1 0 3 -9 3 -20z m105 -20 c-27 -12 -35 -12 -35 0 0 6 12 10
28 9 24 0 25 -1 7 -9z m-1075 -20 c0 -5 -4 -10 -10 -10 -5 0 -10 5 -10 10 0 6
5 10 10 10 6 0 10 -4 10 -10z m-613 -10 c-6 -2 20 -9 58 -15 l70 -11 -50 -26
c-62 -32 -137 -48 -220 -48 -36 0 -65 -4 -65 -9 0 -13 -53 3 -58 17 -2 7 7 12
23 12 34 0 22 20 -13 21 -16 0 2 8 43 19 39 10 86 25 105 33 19 9 54 15 77 14
24 -1 37 -4 30 -7z m-192 -20 c-3 -5 -13 -10 -21 -10 -8 0 -14 5 -14 10 0 6 9
10 21 10 11 0 17 -4 14 -10z m795 1 c0 -12 -20 -25 -27 -18 -7 7 6 27 18 27 5
0 9 -4 9 -9z m-33 -27 c12 -11 13 -18 4 -27 -8 -8 -14 -8 -23 1 -7 7 -20 12
-30 12 -16 0 -17 -3 -8 -20 14 -27 8 -25 -19 4 l-23 25 33 10 c47 13 49 13 66
-5z m48 -23 c-15 -30 -35 -42 -35 -21 0 6 4 10 8 10 5 0 14 12 21 26 6 15 14
24 17 21 3 -3 -2 -19 -11 -36z m365 -36 c0 -7 -74 -55 -85 -55 -5 0 10 14 35
30 47 31 50 33 50 25z m-170 -45 c0 -13 -28 -25 -38 -16 -3 4 0 11 8 16 20 13
30 12 30 0z m-17 -37 c-7 -2 -19 -2 -25 0 -7 3 -2 5 12 5 14 0 19 -2 13 -5z
m114 1 c-3 -3 -12 -4 -19 -1 -8 3 -5 6 6 6 11 1 17 -2 13 -5z"/>
<path d="M3148 3323 c7 -3 16 -2 19 1 4 3 -2 6 -13 5 -11 0 -14 -3 -6 -6z"/>
<path d="M3098 3313 c6 -2 18 -2 25 0 6 3 1 5 -13 5 -14 0 -19 -2 -12 -5z"/>
<path d="M3659 3453 c-13 -16 -12 -17 4 -4 9 7 17 15 17 17 0 8 -8 3 -21 -13z"/>
<path d="M3581 3316 c-14 -8 -26 -21 -27 -30 -2 -13 3 -13 37 5 22 11 37 24
34 29 -8 13 -15 12 -44 -4z"/>
<path d="M3377 3196 c-48 -29 -61 -43 -22 -23 31 16 74 46 65 46 -3 0 -22 -10
-43 -23z"/>
<path d="M2758 3263 c12 -2 32 -2 45 0 12 2 2 4 -23 4 -25 0 -35 -2 -22 -4z"/>
<path d="M2836 3262 c-3 -6 -29 -13 -57 -17 -27 -4 -48 -9 -46 -11 2 -2 47 1
100 8 93 11 99 11 142 -10 60 -29 71 -28 18 2 -46 27 -147 44 -157 28z"/>
<path d="M2698 3223 c7 -3 16 -2 19 1 4 3 -2 6 -13 5 -11 0 -14 -3 -6 -6z"/>
<path d="M2613 3095 c0 -8 4 -12 9 -9 4 3 8 2 8 -3 0 -4 20 -19 45 -32 25 -13
61 -42 81 -63 24 -27 41 -38 51 -33 13 5 9 13 -23 46 -21 22 -50 42 -64 46
-14 3 -38 15 -55 28 -46 33 -52 35 -52 20z"/>
<path d="M2733 3088 c26 -7 50 -25 80 -60 23 -28 59 -71 80 -95 21 -25 36 -51
34 -57 -3 -6 2 -18 11 -25 13 -13 14 -12 9 10 -5 18 -1 29 13 39 18 13 16 16
-27 73 -32 41 -48 55 -53 46 -6 -9 -18 -4 -46 20 -40 36 -93 62 -121 60 -10
-1 -1 -6 20 -11z m197 -152 c0 -6 -7 -2 -15 8 -8 11 -15 25 -15 30 0 6 7 2 15
-8 8 -11 15 -25 15 -30z"/>
<path d="M3031 3045 c0 -5 6 -32 14 -60 8 -29 14 -39 14 -25 -1 24 -27 106
-28 85z"/>
<path d="M3019 2902 c5 -34 6 -35 9 -8 2 16 0 32 -5 37 -5 5 -7 -7 -4 -29z"/>
<path d="M3041 2864 c0 -11 3 -14 6 -6 3 7 2 16 -1 19 -3 4 -6 -2 -5 -13z"/>
<path d="M2998 2803 c-9 -32 -15 -59 -13 -61 5 -5 37 97 33 108 -2 5 -11 -16
-20 -47z"/>
<path d="M2790 2845 c0 -5 16 -35 35 -65 19 -30 35 -50 35 -45 0 6 -16 35 -35
65 -19 30 -35 51 -35 45z"/>
<path d="M2952 2810 c0 -14 2 -19 5 -12 2 6 2 18 0 25 -3 6 -5 1 -5 -13z"/>
<path d="M2489 2722 c11 -16 27 -46 36 -69 14 -35 19 -39 41 -35 27 5 28 15 3
79 -10 27 -11 28 -25 8 -15 -20 -15 -20 -34 5 -11 14 -20 28 -20 33 0 4 -5 7
-11 7 -6 0 -1 -13 10 -28z"/>
<path d="M2294 2580 c21 -23 52 -71 68 -106 33 -71 43 -80 33 -31 -10 45 -77
168 -90 163 -5 -2 -19 1 -30 7 -12 6 -4 -7 19 -33z"/>
<path d="M2701 2589 c-6 -18 -9 -34 -7 -36 2 -2 9 10 15 28 6 18 9 34 7 36 -2
2 -9 -10 -15 -28z"/>
<path d="M2316 2355 c8 -37 14 -45 14 -19 0 10 -5 26 -10 34 -8 11 -9 7 -4
-15z"/>
<path d="M2302 2290 c0 -14 2 -19 5 -12 2 6 2 18 0 25 -3 6 -5 1 -5 -13z"/>
<path d="M2132 2220 c0 -14 2 -19 5 -12 2 6 2 18 0 25 -3 6 -5 1 -5 -13z"/>
<path d="M1770 2153 c0 -9 50 -93 56 -93 2 0 -7 23 -21 50 -23 46 -35 60 -35
43z"/>
<path d="M1922 2139 c-1 -9 -5 -38 -8 -65 -5 -38 -4 -46 5 -38 8 7 11 32 8 65
-2 30 -4 47 -5 38z"/>
<path d="M1690 2138 c0 -3 9 -23 20 -46 11 -22 20 -47 20 -54 0 -9 3 -9 10 2
8 12 10 12 15 -2 4 -10 15 -15 26 -13 15 3 24 -4 34 -28 8 -18 14 -25 15 -17
0 27 -63 106 -112 142 -16 10 -28 18 -28 16z"/>
<path d="M1320 2045 c-18 -19 -31 -37 -28 -40 2 -3 19 13 37 35 39 49 36 51
-9 5z"/>
<path d="M1841 2030 c14 -31 19 -36 19 -24 0 6 -7 19 -16 30 -14 18 -14 18 -3
-6z"/>
<path d="M1403 1851 c-20 -5 -19 -8 20 -30 35 -20 39 -21 26 -5 -9 10 -18 24
-20 30 -2 6 -14 8 -26 5z"/>
<path d="M1230 1741 c0 -12 80 -25 106 -18 11 3 -1 5 -26 6 -33 1 -41 4 -30
11 11 7 7 10 -17 10 -18 0 -33 -4 -33 -9z"/>
<path d="M2935 2468 c-38 -40 -56 -62 -40 -51 28 20 53 45 99 101 35 41 12 21
-59 -50z"/>
<path d="M3240 2465 c0 -87 14 -235 22 -235 5 0 8 12 7 28 -2 15 0 33 5 40 12
19 -3 152 -19 182 -14 25 -14 25 -15 -15z"/>
<path d="M3125 2428 c-3 -18 -1 -80 4 -138 l8 -105 2 138 c1 136 -3 167 -14
105z"/>
<path d="M2790 2374 c-36 -31 -78 -58 -94 -61 -28 -6 -28 -7 -23 -59 9 -85 26
-102 25 -25 -1 63 0 65 32 88 19 13 38 23 42 23 4 0 9 -33 10 -72 1 -49 3 -60
6 -33 l4 40 13 -35 c12 -30 14 -32 14 -10 0 14 -8 45 -19 70 l-18 45 41 43
c23 23 39 42 37 41 -3 0 -34 -25 -70 -55z"/>
<path d="M3362 2355 c0 -16 2 -22 5 -12 2 9 2 23 0 30 -3 6 -5 -1 -5 -18z"/>
<path d="M2601 2214 c0 -11 3 -14 6 -6 3 7 2 16 -1 19 -3 4 -6 -2 -5 -13z"/>
<path d="M2956 2198 c-13 -22 -34 -79 -24 -68 2 3 14 24 26 48 23 45 22 57 -2
20z"/>
<path d="M3041 2114 c0 -11 3 -14 6 -6 3 7 2 16 -1 19 -3 4 -6 -2 -5 -13z"/>
<path d="M2910 2540 c-9 -6 -10 -10 -3 -10 6 0 15 5 18 10 8 12 4 12 -15 0z"/>
<path d="M2700 2410 c-9 -6 -10 -10 -3 -10 6 0 15 5 18 10 8 12 4 12 -15 0z"/>
<path d="M1371 2206 l-24 -31 28 27 c16 15 27 29 24 31 -2 3 -15 -10 -28 -27z"/>
<path d="M1050 2000 c-8 -5 -10 -10 -5 -10 6 0 17 5 25 10 8 5 11 10 5 10 -5
0 -17 -5 -25 -10z"/>
<path d="M3437 2013 c-4 -3 -7 -11 -7 -17 0 -6 5 -5 12 2 6 6 9 14 7 17 -3 3
-9 2 -12 -2z"/>
<path d="M3320 1996 c0 -2 7 -9 15 -16 13 -11 14 -10 9 4 -5 14 -24 23 -24 12z"/>
<path d="M2358 1973 c7 -3 16 -2 19 1 4 3 -2 6 -13 5 -11 0 -14 -3 -6 -6z"/>
<path d="M3280 1951 c5 -11 15 -23 21 -27 6 -3 3 5 -6 20 -20 30 -30 35 -15 7z"/>
<path d="M2000 1943 c25 -9 70 -54 116 -117 45 -60 61 -69 22 -13 -35 52 -121
137 -138 136 -13 0 -13 -1 0 -6z"/>
<path d="M3100 1931 c5 -11 10 -41 10 -68 0 -35 3 -44 10 -33 8 13 11 11 16
-7 7 -26 24 -31 24 -8 0 17 -57 135 -65 135 -3 0 -1 -9 5 -19z"/>
<path d="M2173 1910 c31 -25 76 -100 74 -124 -1 -11 5 -20 15 -21 15 -3 14 3
-7 46 -27 53 -81 119 -97 119 -6 0 1 -9 15 -20z"/>
<path d="M3456 1918 c5 -7 11 -44 15 -83 l6 -70 1 60 c2 67 -5 105 -20 105 -5
0 -6 -6 -2 -12z"/>
<path d="M3307 1879 c-4 -14 -1 -30 8 -39 7 -8 15 -33 18 -55 l4 -40 1 40 c1
22 -4 57 -12 79 -12 34 -14 36 -19 15z"/>
<path d="M3761 1884 c0 -11 3 -14 6 -6 3 7 2 16 -1 19 -3 4 -6 -2 -5 -13z"/>
<path d="M2055 1790 c21 -22 41 -40 44 -40 3 0 -13 18 -34 40 -21 22 -41 40
-44 40 -3 0 13 -18 34 -40z"/>
<path d="M2066 1747 c67 -66 73 -76 80 -125 3 -28 10 -52 14 -52 5 0 16 -3 26
-7 15 -6 16 0 9 53 -4 32 -14 68 -23 78 -10 11 -11 16 -4 12 6 -4 12 -2 12 3
0 6 -5 11 -12 11 -6 0 -23 10 -37 22 -14 13 -20 16 -13 8 16 -19 16 -35 -1
-21 -8 6 -16 9 -19 6 -2 -2 -24 16 -48 40 -24 25 -47 45 -50 45 -4 0 26 -33
66 -73z"/>
<path d="M2812 1800 c0 -14 2 -19 5 -12 2 6 2 18 0 25 -3 6 -5 1 -5 -13z"/>
<path d="M2080 1796 c0 -2 8 -10 18 -17 15 -13 16 -12 3 4 -13 16 -21 21 -21
13z"/>
<path d="M2992 1750 c0 -19 2 -27 5 -17 2 9 2 25 0 35 -3 9 -5 1 -5 -18z"/>
<path d="M3726 1735 c-22 -19 -35 -35 -30 -35 6 0 25 16 44 35 43 44 36 44
-14 0z"/>
<path d="M2478 1648 c4 -162 9 -182 10 -43 0 66 -3 128 -6 138 -4 9 -6 -33 -4
-95z"/>
<path d="M2821 1744 c0 -11 3 -14 6 -6 3 7 2 16 -1 19 -3 4 -6 -2 -5 -13z"/>
<path d="M3641 1737 c-13 -21 -12 -21 5 -5 10 10 16 20 13 22 -3 3 -11 -5 -18
-17z"/>
<path d="M2391 1698 c4 -29 4 -99 1 -155 -3 -67 -1 -103 5 -103 22 0 29 149
12 247 -13 76 -28 85 -18 11z"/>
<path d="M2677 1715 c-8 -43 -7 -145 3 -145 12 0 21 111 12 145 l-9 30 -6 -30z"/>
<path d="M2290 1684 c0 -6 7 -19 16 -30 14 -18 14 -18 3 6 -14 31 -19 36 -19
24z"/>
<path d="M2300 1543 c1 -32 7 -69 15 -83 13 -24 14 -21 15 42 0 36 -3 73 -6
82 -13 33 -24 14 -24 -41z"/>
<path d="M2642 1450 c0 -14 2 -19 5 -12 2 6 2 18 0 25 -3 6 -5 1 -5 -13z"/>
<path d="M2571 1407 c-13 -21 -12 -21 5 -5 10 10 16 20 13 22 -3 3 -11 -5 -18
-17z"/>
<path d="M2377 1397 c-11 -29 -9 -43 4 -30 6 6 9 19 7 29 -3 18 -4 18 -11 1z"/>
<path d="M1340 1619 c25 -5 55 -11 67 -14 17 -4 21 -2 17 10 -5 11 -21 15 -68
14 l-61 -1 45 -9z"/>
<path d="M1458 1613 c6 -2 18 -2 25 0 6 3 1 5 -13 5 -14 0 -19 -2 -12 -5z"/>
<path d="M1500 1606 c0 -2 7 -7 16 -10 8 -3 12 -2 9 4 -6 10 -25 14 -25 6z"/>
<path d="M1594 1434 c-18 -14 -18 -14 6 -3 31 14 36 19 24 19 -6 0 -19 -7 -30
-16z"/>
<path d="M1528 1399 c-21 -11 -38 -22 -38 -24 0 -3 18 4 40 15 22 11 40 23 40
25 0 7 0 7 -42 -16z"/>
<path d="M1415 1339 c-33 -17 -52 -28 -42 -25 40 12 12 -14 -47 -45 -36 -19
-63 -35 -61 -37 6 -7 102 47 142 80 22 18 49 38 59 45 33 21 11 13 -51 -18z"/>
<path d="M1228 1223 c7 -3 16 -2 19 1 4 3 -2 6 -13 5 -11 0 -14 -3 -6 -6z"/>
<path d="M1150 1210 c-20 -6 -21 -8 -5 -8 11 0 31 4 45 8 20 6 21 8 5 8 -11 0
-31 -4 -45 -8z"/>
<path d="M3181 2844 c0 -11 3 -14 6 -6 3 7 2 16 -1 19 -3 4 -6 -2 -5 -13z"/>
<path d="M4065 2555 c-22 -8 -31 -14 -20 -14 11 0 34 6 50 14 38 17 22 17 -30
0z"/>
<path d="M3788 2493 c7 -3 16 -2 19 1 4 3 -2 6 -13 5 -11 0 -14 -3 -6 -6z"/>
<path d="M3748 2483 c7 -3 16 -2 19 1 4 3 -2 6 -13 5 -11 0 -14 -3 -6 -6z"/>
<path d="M4395 2475 l-50 -13 40 0 c22 0 64 3 93 7 63 9 68 -2 10 -22 -24 -9
-36 -16 -28 -16 8 0 35 9 60 20 39 19 43 22 25 29 -29 12 -92 10 -150 -5z"/>
<path d="M3688 2473 c6 -2 18 -2 25 0 6 3 1 5 -13 5 -14 0 -19 -2 -12 -5z"/>
<path d="M4390 2420 c-33 -8 -281 -28 -420 -33 -36 -2 -12 -4 53 -5 132 -2
165 -21 40 -23 -43 -1 -91 -5 -108 -9 -26 -7 -24 -8 20 -9 28 -1 68 -4 90 -7
30 -4 36 -3 25 5 -13 9 -11 11 7 11 33 0 57 -11 42 -20 -6 -4 37 -11 97 -14
124 -8 234 -24 234 -36 0 -5 10 -6 23 -3 35 9 8 -14 -33 -26 l-35 -11 35 5
c19 3 41 12 48 19 12 11 9 16 -18 30 -18 8 -37 13 -43 9 -6 -3 -7 -1 -3 5 4 7
1 12 -8 12 -8 0 -23 8 -33 19 -10 10 -34 21 -53 25 -25 4 -31 3 -20 -4 12 -8
10 -9 -10 -9 -14 1 -38 5 -55 9 l-30 8 33 1 c18 0 31 5 27 10 -7 12 13 17 88
26 31 3 57 11 57 16 0 10 -1 10 -50 -1z m-170 -68 c0 -5 -13 -7 -30 -4 -16 2
-30 6 -30 8 0 2 14 4 30 4 17 0 30 -4 30 -8z m120 -22 c10 -6 2 -7 -25 -3 -49
7 -58 13 -19 13 16 0 36 -5 44 -10z"/>
<path d="M4323 2283 c9 -2 23 -2 30 0 6 3 -1 5 -18 5 -16 0 -22 -2 -12 -5z"/>
<path d="M4398 2263 c12 -2 30 -2 40 0 9 3 -1 5 -23 4 -22 0 -30 -2 -17 -4z"/>
<path d="M4293 2233 c26 -2 67 -2 90 0 23 2 2 3 -48 3 -49 0 -68 -1 -42 -3z"/>
<path d="M2198 1223 c6 -2 18 -2 25 0 6 3 1 5 -13 5 -14 0 -19 -2 -12 -5z"/>
</g>
</svg>
